<svg width="9" height="14" viewBox="0 0 9 14" fill="none" xmlns="http://www.w3.org/2000/svg">
<path d="M4.5 6.65C4.07376 6.65 3.66498 6.46563 3.36358 6.13744C3.06218 5.80925 2.89286 5.36413 2.89286 4.9C2.89286 4.43587 3.06218 3.99075 3.36358 3.66256C3.66498 3.33437 4.07376 3.15 4.5 3.15C4.92624 3.15 5.33502 3.33437 5.63642 3.66256C5.93782 3.99075 6.10714 4.43587 6.10714 4.9C6.10714 5.12981 6.06557 5.35738 5.98481 5.5697C5.90404 5.78202 5.78566 5.97493 5.63642 6.13744C5.48718 6.29994 5.31001 6.42884 5.11503 6.51679C4.92004 6.60473 4.71105 6.65 4.5 6.65ZM4.5 0C3.30653 0 2.16193 0.516248 1.31802 1.43518C0.474106 2.3541 0 3.60044 0 4.9C0 8.575 4.5 14 4.5 14C4.5 14 9 8.575 9 4.9C9 3.60044 8.52589 2.3541 7.68198 1.43518C6.83807 0.516248 5.69347 0 4.5 0Z" fill="#686B6F"/>
</svg>
